<svg xmlns="http://www.w3.org/2000/svg" xmlns:xlink="http://www.w3.org/1999/xlink" width="1500" height="2500" viewBox="0 0 1500 2500"><defs><clipPath id="clip-path"><rect x="0.5" y="-1.5" width="1500" height="2505" style="fill:none"/></clipPath><clipPath id="clip-path-2"><rect x="-32.55" y="-209.43" width="2886.01" height="1442.43" style="fill:none"/></clipPath><clipPath id="clip-path-3"><rect x="-32.55" y="-209.43" width="2886.01" height="1623.38" style="fill:none"/></clipPath><clipPath id="clip-path-4"><rect x="532.65" y="906.52" width="12.75" height="309.7" style="fill:none"/></clipPath><clipPath id="clip-path-5"><rect x="790.73" y="906.52" width="12.75" height="309.7" style="fill:none"/></clipPath><clipPath id="clip-path-6"><rect x="1048.82" y="906.52" width="12.75" height="309.7" style="fill:none"/></clipPath><clipPath id="clip-path-7"><rect x="1306.91" y="906.52" width="12.75" height="309.7" style="fill:none"/></clipPath><clipPath id="clip-path-8"><rect x="329.71" y="214.86" width="626.81" height="90.88" style="fill:none"/></clipPath><clipPath id="clip-path-10"><path d="M296.44,703.07s2.28,53.42,2.28,57.91,1.21,9,1.77,14.64A58.75,58.75,0,0,1,297,800c-3.37,9,5.19,7.41,5.19,11.9s3.13,50,3.13,50-37.49,0-51-24.1-21.42-37-16.93-60.57-5-67.37,17.44-73A97.23,97.23,0,0,1,296.44,703.07Z" style="fill:none"/></clipPath></defs><g style="isolation:isolate"><g id="Ebene_1" data-name="Ebene 1"><g style="clip-path:url(#clip-path)"><rect x="-315.29" y="-2.97" width="2647.79" height="2534.67" style="fill:#7299a5"/><rect x="-314" y="-3" width="2616" height="1228" style="fill:#d5edff"/><g style="clip-path:url(#clip-path-2)"><rect x="-32.55" y="1168.13" width="2886.01" height="245.82" style="fill:#b5b5b5"/><rect x="-32.55" y="1216.84" width="2886.01" height="13.73" style="fill:#6a7286"/><g style="clip-path:url(#clip-path-3)"><path d="M2665.16,279.18h-2488a20.13,20.13,0,0,1-20-17.76L143.88,149.19a20.12,20.12,0,0,1,20-22.48H2672.4a20.12,20.12,0,0,1,20.08,21.42l-7.24,112.22a20.12,20.12,0,0,1-20.08,18.83" style="fill:#a8a8a8"/><path d="M2665.16,279.18h-2488a20.13,20.13,0,0,1-20-17.76L143.88,149.19a20.12,20.12,0,0,1,20-22.48H2672.4a20.12,20.12,0,0,1,20.08,21.42l-7.24,112.22A20.12,20.12,0,0,1,2665.16,279.18Z" style="fill:none;stroke:#4f4f4f;stroke-miterlimit:10;stroke-width:3.00626500875577px"/><rect x="227.17" y="799.83" width="2366.58" height="417.17" style="fill:#4f4f4f"/><rect x="279.75" y="861.97" width="2261.43" height="355.04" style="fill:#8c8c8c"/><rect x="279.75" y="906.58" width="1281.55" height="310.43" style="fill:#d3dee8"/><path d="M54.82,189.59l36.41,593.5a24,24,0,0,0,24,22.53H2705.74a24,24,0,0,0,24-22.53l36.4-593.5a24,24,0,0,0-24-25.48H78.78a24,24,0,0,0-24,25.48" style="fill:#8f8f8f"/><path d="M54.82,189.59l36.41,593.5a24,24,0,0,0,24,22.53H2705.74a24,24,0,0,0,24-22.53l36.4-593.5a24,24,0,0,0-24-25.48H78.78A24,24,0,0,0,54.82,189.59Z" style="fill:none;stroke:#4f4f4f;stroke-miterlimit:10;stroke-width:3.00626500875577px"/><path d="M123.1,189.51l36.42,593.65a23.93,23.93,0,0,0,23.88,22.46H2612.33a23.93,23.93,0,0,0,23.89-22.46l36.42-593.65a23.94,23.94,0,0,0-23.89-25.4H147a23.94,23.94,0,0,0-23.89,25.4" style="fill:#c9c9c9"/><path d="M123.1,189.51l36.42,593.65a23.93,23.93,0,0,0,23.88,22.46H2612.33a23.93,23.93,0,0,0,23.89-22.46l36.42-593.65a23.94,23.94,0,0,0-23.89-25.4H147A23.94,23.94,0,0,0,123.1,189.51Z" style="fill:none;stroke:#4f4f4f;stroke-miterlimit:10;stroke-width:3.00626500875577px"/><path d="M217.27,192.19,244,669.33a26.58,26.58,0,0,0,26.54,25.09H2550.37a26.58,26.58,0,0,0,26.54-25.09l26.74-477.14a26.59,26.59,0,0,0-26.54-28.08H243.81a26.59,26.59,0,0,0-26.54,28.08" style="fill:#6c6e6e"/><path d="M2595.5,337.61l.45-8H2423.09l16.46-165.53h-6.3L2416.8,329.64H2201.5L2215,164.11h-6.29l-13.46,165.53H1976.15V164.11h-6.26V329.64H1747.75V164.11h-6.26V329.64H1511V164.11h-6.26V329.64H1284.34V164.11h-6.26V329.64H1049.62V164.11h-6.26V329.64H836.26V164.11H830V329.64h-219L597.47,164.11h-6.28l13.46,165.53H389.35L372.89,164.11H366.6l16.45,165.53H225l.45,8H383.85l18.37,184.8H235.78l.44,8H403L419,694h6.24L409.3,530.37H621L634.06,694h6.24l-13-163.58H830v164h6.27v-164h207.1v164h6.26v-164h228.46v164h6.26v-164h220.38v164H1511v-164h230.51v164h6.26v-164h222.14v164h6.26v-164h202.73l-13,163.58h6.25l13.08-163.58h211.67L2380.91,694h6.23l16-163.58H2584.7l.44-8H2403.93l18.37-184.8Zm-2187,184.8-18.37-184.8H605.3l15,184.8Zm421.48,0H626.62l-15-184.8H830Zm213.37,0H836.26V337.61h207.1Zm234.72,0H1049.62V337.61h228.46Zm226.64,0H1284.34V337.61h220.38Zm236.77,0H1511V337.61h230.51Zm228.4,0H1747.76V337.61h222.13Zm209.64,0H1976.15V337.61h218.41Zm218.1,0H2185.82l15-184.8H2416Z" style="fill:#ccc"/><g style="mix-blend-mode:multiply;opacity:0.330002009868622"><g style="clip-path:url(#clip-path-4)"><rect x="532.65" y="906.52" width="12.75" height="309.7" style="fill:#45464f"/></g></g><g style="mix-blend-mode:multiply;opacity:0.330002009868622"><g style="clip-path:url(#clip-path-5)"><rect x="790.73" y="906.52" width="12.75" height="309.7" style="fill:#45464f"/></g></g><g style="mix-blend-mode:multiply;opacity:0.330002009868622"><g style="clip-path:url(#clip-path-6)"><rect x="1048.82" y="906.52" width="12.75" height="309.7" style="fill:#45464f"/></g></g><g style="mix-blend-mode:multiply;opacity:0.330002009868622"><g style="clip-path:url(#clip-path-7)"><rect x="1306.91" y="906.52" width="12.75" height="309.7" style="fill:#45464f"/></g></g><g style="opacity:0"><g style="clip-path:url(#clip-path-8)"><path d="M936.24,305.73H350a20.26,20.26,0,0,1-20.27-20.27V235.13A20.26,20.26,0,0,1,350,214.86H936.24a20.26,20.26,0,0,1,20.27,20.27v50.33a20.26,20.26,0,0,1-20.27,20.27" style="fill:#fff"/></g></g><path d="M665.19,260.85c4-2.13,5.8-4.87,5.8-8.59,0-6.77-5.18-10.68-14.36-10.68H637.79v41.84h19.85c9.17,0,14.94-4.61,14.94-12,0-5.38-2.21-8.67-7.39-10.61m-18.66-12.19h8.71c4.84,0,7.12,1.59,7.12,5,0,2.94-2.55,4.72-7,4.72h-8.83Zm9.21,27.67h-9.21V265.07h8.79c5.69,0,8.2,1.74,8.2,5.69,0,3.75-2.55,5.57-7.78,5.57" style="fill:#fff"/><path d="M577.94,258.65l-7.5-1.3c-3.44-.65-5.14-2.14-5.14-4.65,0-3,2.68-4.88,7-4.88,5,0,7.58,1.92,8.06,6.21H589c-.27-8.35-6.34-13.3-16.19-13.3s-16.18,4.9-16.18,12.54c0,6.7,4,10.45,12.75,12.09l6.83,1.27c3.4.6,5.13,2.22,5.13,4.86,0,3.32-3.24,5.7-7.85,5.7-5.92,0-8.64-2.3-9.2-7.75h-8.91c.19,9.47,6.6,14.84,17.73,14.84,10.57,0,17.21-5.26,17.21-13.46,0-6.54-4.34-10.78-12.38-12.17" style="fill:#fff"/><path d="M623.93,260.85c4.06-2.13,5.81-4.87,5.81-8.59,0-6.77-5.19-10.68-14.36-10.68H596.69v41.84h19.69c9.18,0,14.91-4.61,14.91-12,0-5.38-2.13-8.67-7.36-10.61m-18.46-12.19H614c4.87,0,7.15,1.59,7.15,5,0,2.94-2.55,4.72-7,4.72h-8.67Zm9,27.67h-9V265.07h8.59c5.73,0,8.21,1.74,8.21,5.69,0,3.75-2.56,5.57-7.78,5.57" style="fill:#fff"/><polygon points="770.44 283.42 779.2 283.42 779.2 266.25 797.98 266.25 797.98 258.96 779.2 258.96 779.2 249.14 799.83 249.14 799.83 241.59 770.44 241.59 770.44 283.42" style="fill:#fff"/><polygon points="733.66 283.42 742.45 283.42 742.45 266.25 761.01 266.25 761.01 258.96 742.45 258.96 742.45 249.14 762.82 249.14 762.82 241.59 733.66 241.59 733.66 283.42" style="fill:#fff"/><path d="M709.43,277c-6.52,0-10.79-5.75-10.79-14.49s4.34-14.47,11-14.47c4.87,0,7.81,2.34,8.83,7.09h8.72c-.76-8.84-7.51-14.42-17.66-14.42-11.74,0-19.73,8.84-19.73,21.88s7.77,21.67,19.58,21.67c10.52,0,17.54-6,18.18-15.59h-8.79c-.94,5.69-3.92,8.33-9.32,8.33" style="fill:#fff"/><polygon points="856.92 283.42 865.71 283.42 865.71 266.25 884.38 266.25 884.38 258.96 865.71 258.96 865.71 249.14 886.2 249.14 886.2 241.59 856.92 241.59 856.92 283.42" style="fill:#fff"/><path d="M913.85,258.65l-7.54-1.3c-3.44-.65-5.13-2.14-5.13-4.65,0-3,2.71-4.88,7-4.88,5.09,0,7.58,1.92,8.11,6.21h8.56c-.23-8.35-6.3-13.3-16.14-13.3-10,0-16.19,4.9-16.19,12.54,0,6.7,4,10.45,12.71,12.09l6.87,1.27c3.36.6,5.09,2.22,5.09,4.86,0,3.32-3.24,5.7-7.81,5.7-6,0-8.68-2.3-9.24-7.75h-8.87c.19,9.47,6.57,14.84,17.74,14.84,10.52,0,17.16-5.26,17.16-13.46,0-6.54-4.3-10.78-12.34-12.17" style="fill:#fff"/><polygon points="819.75 283.42 828.51 283.42 828.51 266.25 847.33 266.25 847.33 258.96 828.51 258.96 828.51 249.14 849.14 249.14 849.14 241.59 819.75 241.59 819.75 283.42" style="fill:#fff"/><rect x="356.92" y="231.65" width="179.14" height="59.75" style="fill:#e70019"/><polygon points="466.38 281.42 477.96 281.42 462.34 266.14 481.73 266.14 481.73 281.42 490.86 281.42 490.86 266.14 510.26 266.14 494.64 281.42 506.22 281.42 526.1 261.53 506.22 241.61 494.64 241.61 510.26 256.97 490.86 256.97 490.86 241.61 481.73 241.61 481.73 256.97 462.34 256.97 477.96 241.61 466.38 241.61 446.49 261.53 466.38 281.42" style="fill:#fff"/></g><rect x="1362.36" y="863.63" width="58.12" height="335.93" style="fill:#d6d9d9"/><rect x="1362.36" y="863.63" width="58.12" height="335.93" style="fill:none;stroke:#4f4f4f;stroke-miterlimit:10;stroke-width:3.00626500875577px"/><rect x="1081.85" y="875.72" width="210.09" height="34.66"/><rect x="1086.69" y="879.58" width="200.4" height="26.94" style="fill:#143b6c"/><rect x="1188.72" y="885.81" width="90.27" height="14.97" style="fill:#fff"/><rect x="1091.75" y="892.12" width="14.89" height="1.86" style="fill:#fff"/><polygon points="1096.89 899.51 1098.21 898.19 1093.07 893.05 1098.21 887.91 1096.89 886.6 1090.43 893.05 1096.89 899.51" style="fill:#fff"/><rect x="1125.3" y="885.81" width="46.43" height="5.79" style="fill:#fff"/><rect x="1118.62" y="894.99" width="53.11" height="5.79" style="fill:#a80008"/><rect x="1179.83" y="882.27" width="0.78" height="22.36" style="fill:#fff"/><g style="clip-path:url(#clip-path-3)"><path d="M892.91,794a4.58,4.58,0,0,0-4.57,4.57V870a5.75,5.75,0,0,0,5.75,5.75H2853.47V794Z" style="fill:#d6d9d9"/><path d="M892.91,794a4.58,4.58,0,0,0-4.57,4.57V870a5.75,5.75,0,0,0,5.75,5.75H2853.47V794Z" style="fill:none;stroke:#4f4f4f;stroke-miterlimit:10;stroke-width:3.00626500875577px"/><path d="M1130.8,835.82c2.47-1.31,3.56-3,3.56-5.27,0-4.15-3.18-6.55-8.8-6.55H1114v25.65h12.17c5.62,0,9.15-2.83,9.15-7.33,0-3.3-1.35-5.32-4.53-6.5m-11.43-7.47h5.34c3,0,4.36,1,4.36,3,0,1.81-1.56,2.9-4.29,2.9h-5.41Zm5.64,17h-5.64V838.4h5.38c3.49,0,5,1.07,5,3.49s-1.56,3.42-4.77,3.42" style="fill:#202020"/><path d="M1077.33,834.46l-4.6-.79c-2.1-.4-3.15-1.31-3.15-2.85,0-1.85,1.64-3,4.31-3,3.09,0,4.64,1.18,4.94,3.8h5.28c-.17-5.11-3.89-8.15-9.93-8.15s-9.91,3-9.91,7.69c0,4.1,2.47,6.4,7.81,7.41l4.18.78c2.09.37,3.15,1.36,3.15,3,0,2-2,3.49-4.81,3.49-3.63,0-5.29-1.41-5.64-4.75h-5.46c.12,5.81,4,9.1,10.87,9.1,6.47,0,10.54-3.23,10.54-8.26,0-4-2.66-6.6-7.58-7.46" style="fill:#202020"/><path d="M1105.52,835.82c2.49-1.31,3.56-3,3.56-5.27,0-4.15-3.18-6.55-8.81-6.55h-11.45v25.65h12.07c5.62,0,9.13-2.83,9.13-7.33,0-3.3-1.3-5.32-4.5-6.5m-11.32-7.47h5.22c3,0,4.39,1,4.39,3,0,1.81-1.57,2.9-4.29,2.9h-5.32Zm5.53,17h-5.53V838.4h5.27c3.51,0,5,1.07,5,3.49s-1.57,3.42-4.77,3.42" style="fill:#202020"/><polygon points="1195.31 849.65 1200.68 849.65 1200.68 839.13 1212.19 839.13 1212.19 834.66 1200.68 834.66 1200.68 828.64 1213.33 828.64 1213.33 824.01 1195.31 824.01 1195.31 849.65" style="fill:#202020"/><polygon points="1172.77 849.65 1178.16 849.65 1178.16 839.13 1189.53 839.13 1189.53 834.66 1178.16 834.66 1178.16 828.64 1190.64 828.64 1190.64 824.01 1172.77 824.01 1172.77 849.65" style="fill:#202020"/><path d="M1157.92,845.73c-4,0-6.61-3.53-6.61-8.88S1154,828,1158,828a5,5,0,0,1,5.41,4.34h5.34c-.46-5.41-4.6-8.84-10.82-8.84-7.2,0-12.1,5.42-12.1,13.41s4.76,13.29,12,13.29c6.46,0,10.76-3.68,11.15-9.56h-5.39c-.57,3.49-2.4,5.11-5.71,5.11" style="fill:#202020"/><polygon points="1248.32 849.65 1253.7 849.65 1253.7 839.13 1265.15 839.13 1265.15 834.66 1253.7 834.66 1253.7 828.64 1266.26 828.64 1266.26 824.01 1248.32 824.01 1248.32 849.65" style="fill:#202020"/><path d="M1283.21,834.46l-4.62-.79c-2.11-.4-3.15-1.31-3.15-2.85,0-1.85,1.67-3,4.3-3,3.13,0,4.65,1.18,5,3.8H1290c-.15-5.11-3.87-8.15-9.9-8.15s-9.92,3-9.92,7.69c0,4.1,2.47,6.4,7.79,7.41l4.21.78c2.06.37,3.12,1.36,3.12,3,0,2-2,3.49-4.79,3.49-3.65,0-5.32-1.41-5.66-4.75h-5.44c.12,5.81,4,9.1,10.87,9.1,6.45,0,10.53-3.23,10.53-8.26,0-4-2.64-6.6-7.57-7.46" style="fill:#202020"/><polygon points="1225.54 849.65 1230.9 849.65 1230.9 839.13 1242.44 839.13 1242.44 834.66 1230.9 834.66 1230.9 828.64 1243.55 828.64 1243.55 824.01 1225.54 824.01 1225.54 849.65" style="fill:#202020"/><rect x="941.86" y="817.92" width="109.8" height="36.62" style="fill:#e70019"/><polygon points="1008.95 848.42 1016.05 848.42 1006.48 839.06 1018.36 839.06 1018.36 848.42 1023.96 848.42 1023.96 839.06 1035.85 839.06 1026.27 848.42 1033.37 848.42 1045.56 836.24 1033.37 824.03 1026.27 824.03 1035.85 833.44 1023.96 833.44 1023.96 824.03 1018.36 824.03 1018.36 833.44 1006.48 833.44 1016.05 824.03 1008.95 824.03 996.76 836.24 1008.95 848.42" style="fill:#fff"/></g><rect x="-32.55" y="1216.84" width="2886.01" height="79.14" style="fill:#9b9b9b"/><rect x="-32.55" y="1193.67" width="2886.01" height="23.91" style="fill:#bbbdbf"/><rect x="-32.55" y="1207.7" width="2886.01" height="9.88" style="fill:#b0b0b0"/><rect x="-32.55" y="1281.58" width="2886.01" height="132.37" style="fill:#818181"/><rect x="-32.55" y="1331.03" width="2886.01" height="82.92" style="fill:#2a3239"/><rect x="-32.55" y="1290.8" width="2886.01" height="19.38" style="fill:#686868"/></g><rect x="-313.16" y="1224.66" width="2645.73" height="19.59" style="fill:#263a40"/></g><path d="M1031.9,1344.08s12.24-1.21,13.41-.6,3.48,14.56,1.89,19-2.63,11.88-5.62,12.62-18.89-12.93-18.74-18.84S1031.9,1344.08,1031.9,1344.08Z"/><path d="M808.54,1459.41s-9.45,25.52-24,34.61-112.71,97.26-120,108.17-31.81,33.63-31.81,33.63-55.45,82.71-60.9,103.62-31.81,70.89-33.63,91.8-4.55,40-5.45,59.08-4.55,11.81,0,27.27,23.63,24.54,41.81,17.27,21.81-4.55,21.81-4.55,5.45.91,8.18,7.27,8.18,7.27,16.36,10.91,1.82.91,30.91,2.73,36.81,4.09,40.44,5.91.91-3.64,7.28,0,13.63,7.27,22.72,5.45,12.72,4.54,22.72.91,10-3.64,14.55-5.46,6.36-1.81,7.27-7.27,3.63-6.36,1.81-10-9.08-6.36-17.27-8.18-23.63-5.45-23.63-5.45-12.72,1.82-17.27-5.45-3.63-16.36,7.27-20.91,13.64-8.18,26.36-20,21.82-6.36,26.36-20.9,14.55-38.18,8.18-45.45,8.18-27.27,14.55-31.81,23.63-12.73,23.63-12.73-10,26.36-15.45,30l-8.18,11.82s13.63-11.82,13.63-9.09-11.82,13.63-12.73,17.27c0,0,10-7.28,12.73-8.18s-6.36,10.9-9.09,16.36a93.22,93.22,0,0,0-4.54,10.9s10.9-10,13.63-11.81,0,1.82-2.73,9.09a46.75,46.75,0,0,1-6.36,11.81l10.91-5.45c3.63-1.82,3.63,2.73,2.72,9.09a32.21,32.21,0,0,1-5.45,13.63,69.34,69.34,0,0,0-3.63,6.37l7.27-3.64s2.72,5.45.91,7.27-7.28,4.55-5.46,4.55,7.27-1.82,7.27-1.82,2.73,1.82,1.82,3.63,7.27,5.46,7.27,10-.91,7.27,2.73,8.18-.91,7.27,0,9.09,3.64,1.82,3.64,7.27,6.36,9.09,6.36,12.73,5.45,8.18,5.45,10.91,19.09,7.27,27.27,5.45a79.13,79.13,0,0,1,18.18-1.82c3.63,0,10,1.82,14.54,0s6.36-2.73,10-3.63,10-4.55,10-9.09-1.82-3.64-.91-7.28.91-4.54-.91-7.27-2.73-5.45-7.27-6.36-8.18-1.82-12.73-.91-7.27.91-14.54,0-8.18-5.45-8.18-7.27-13.63-20.91-14.54-26.36-3.64-9.09-.91-13.63,4.54-33.63,4.54-44.54,6.37-56.35,13.64-72.72,7.27-16.36,10-20,10-1.82,10.9-2.73-2.72-2.73-2.72-2.73a2,2,0,0,0,2.72-.9c.91-1.82.91-6.37,1.82-6.37s1.82-2.72,2.73-4.54,2.72-7.27,3.63-5.46,1.82,3.64,1.82,1.82.91-7.27.91-7.27,7.27,1.82,6.36,0a12.14,12.14,0,0,1-.91-4.54,2.82,2.82,0,0,0,1.82-.91c.91-.91,2.73-5.46,2.73-5.46s3.63-16.36,9.09-18.18,7.27-15.45,10.9-17.27,7.28-2.72,7.28-7.27-.91-24.54,3.63-29.08,5.46-5.46,4.55-10.91-5.46-21.81-5.46-21.81-4.54-14.55-2.72-24.55,2.72-12.72,1.81-15.45-2.72-14.54-2.72-14.54L811.36,1459Z" style="fill:#f2d79a"/><path d="M819.84,1888.12s3.8,3.11,7.43,4,1.82,2.72,3.64,6.36.91,1.82,5.45,5.45,12.73,10.91,16.36,14.55S850,1914,861.81,1924s20,10.91,23.63,12.72-3.63,1.82,3.64,1.82,5.45,0,10.91-1.82,5.45-.9,9.09-2.72,4.54-.91,5.45-2.73-1.82-4.54,0-5.45.91-1.82,1.82-3.64,2.27-4.4,2.27-4.4-1.36,3.49-.46,6.22,1.82,5.45.91,8.18-9.09,6.36-10,7.27-9.09,2.73-10,3.64-.39.68-5.19,1.25-13.36-.71-16.81-.53-16.18,2.91-24.36-2.54-30.38-30.64-30-31.81,2.72-7.28-.91-9.09S820,1899,820,1896.68,819.84,1888.12,819.84,1888.12Z" style="fill:#e2b664"/><path d="M1028.43,1357c-1.36-4.46,6.2-11.66,6.2-11.66l-2-1.82s-40.57,4.61-48.74.27-15.36-11.9-17.62-16.09-21.85-12.35-29.26-11.06-29.6,2.23-50.28,14.42-16.25,36.23-21.33,38.76-10.17,5.06-11.13,8.29-18.44,29.08-26.28,35.39-8.74,19.28-8.2,21.06-3.44,7.89-3.44,7.89l-1.58.62c19.47,20,65,59.29,132.22,73.35a2.34,2.34,0,0,1,.18-.74,46.24,46.24,0,0,1,4.88-6.38s11.26-1.49,14.14,1.53a23.13,23.13,0,0,0,5.21,4.27l-1-6.53,1.86-3.5s1.25-15-1.75-24.85-8-29.27-5.93-35.3c1.35-3.95,20.65-34.67,31.29-35s38.12-12.65,38.2-15.6,8.66-16.29,8.12-18.08,1.38-8.23-3.56-11.6S1029.8,1361.42,1028.43,1357Z" style="fill:#f2d79a"/><path d="M967.46,1338s3.43,4.81,2.19,7.14l2.33,1.24-17.78,2.52,13.61-13Z"/><path d="M909.19,1377.35s-15.47,16.45-13.15,30.39,14.28,43.48,8.64,56.93-11.08,18-25.42,12.66-23.18-18.29-24.47-25.71,4.4-11.11,3.26-24.43-3.14-16.62-2.72-21.63,4.48-14.07,9.64-19.56,6.25-1.91,12.3-7.67,8.8-9.53,12.1-11.51,21.13,5.24,21.13,5.24Z" style="fill:#c69d5c"/><path d="M905.15,1373.7s-15.47,16.46-13.16,30.4,14.29,43.47,8.64,56.92-11.08,18-25.42,12.67S852,1455.39,850.74,1448s4.41-11.12,3.26-24.44-3.13-16.62-2.72-21.63,4.49-14.07,9.64-19.55,6.25-1.91,12.3-7.67,8.8-9.53,12.1-11.52,26.7,7.45,26.7,7.45Z" style="fill:#e2b664"/><path d="M815,1448.15l-9.35,8.6s79.89,76.18,142.61,73.53l-.23-2.54a15.59,15.59,0,0,1,1.46-8.21l1.19-2.48-62.39-26.61a128.72,128.72,0,0,1-23.67-13.19l-49.89-35.14Z"/><circle cx="831.65" cy="1465.28" r="3.34" transform="translate(-290.27 208.3) rotate(-12.17)" style="fill:#bbbdbf"/><circle cx="846.08" cy="1476.11" r="3.34" transform="translate(-292.22 211.59) rotate(-12.17)" style="fill:#bbbdbf"/><circle cx="937.55" cy="1519.91" r="3.34" transform="translate(-299.4 231.86) rotate(-12.17)" style="fill:#bbbdbf"/><circle cx="914.24" cy="1513.98" r="3.34" transform="translate(-298.68 226.81) rotate(-12.17)" style="fill:#bbbdbf"/><circle cx="817.23" cy="1454.45" r="3.34" transform="translate(-288.31 205.02) rotate(-12.17)" style="fill:#bbbdbf"/><circle cx="894.08" cy="1506.94" r="3.34" transform="translate(-297.65 222.4) rotate(-12.17)" style="fill:#bbbdbf"/><path d="M536.41,1916.68s2.73,36.36,12.73,38.17,10,0,10,0a43.15,43.15,0,0,0,18.18,10c10.91,2.73,13.64.91,24.54,2.73s6.37,6.36,17.27,5.45-.9,1.82,21.82,5.46,23.63-1.82,43.63,0,25.45,6.36,39.08,3.63-1.82,0,32.72.91,27.27,0,59.08-6.36,47.27-6.37,61.81-8.18,20-1.82,30-.91a151.34,151.34,0,0,1-15.45-7.27s10.9,0,12.72-.91-1.82.91-9.09-3.64-10.91-14.54-21.81-20-13.64-4.55-20-11.82-7.27-8.18-15.45-10-12.73-.91-20,0-17.27,5.45-17.27,5.45l-2.27.46,4.54-4.55s-3.63,3.64-12.72,4.55-4.55-1.82-19.09.91-7.27,5.45-20,3.63-2.72-4.54-20-1.81-14.54,6.36-30,1.81-1.81-9.09-30.9-5.45-33.63,5.45-48.17,1.82-16.36,1.82-30,4.54-13.63,6.37-18.18,2.73a16.27,16.27,0,0,1-5.45-9.09" style="fill:#f2d79a"/><path d="M720.93,1924.86c-13.64,4.54-17.27,0-19.55-.46-15.79-3.16-1.81-9.09-30.9-5.45s-33.63,5.45-48.17,1.82-16.36,1.82-30,4.54-13.63,6.37-18.18,2.73a16.27,16.27,0,0,1-5.45-9.09s1.36,8.63,10.45,5,22.72-7.27,34.54-7.27,10,5.45,26.36,2.72,33.63-9.08,52.72-2.72,14.42-12,15.45-6.36C710,1920.31,720.93,1924.86,720.93,1924.86Z" style="fill:#e2b664"/><path d="M687.75,1948c2.73.9,17.27,2.72,36.36-2.73S775,1924.4,775,1924.4s-33.63,10.91-43.63,14.55-22.73,11.81-43.63,10" style="fill:#e2b664"/><path d="M725.47,1957.58c8.18,0,50.9,0,77.26-15.45s40.9-20,40.9-20-25.45,5.45-36.36,12.73S725.47,1957.58,725.47,1957.58Z" style="fill:#e2b664"/><path d="M687.29,1780.34c-1.63.8,54.54-14.55,87.26,28.17l2.85,3.62s-1.7,0,0-5.42a57.05,57.05,0,0,1,3.83-9.38S731.83,1758.52,687.29,1780.34Z" style="fill:#e2b664"/><path d="M659.12,1738.53s6.36,20,0,30-8.18,14.54-8.18,14.54,10.9-8.18,20.9-7.27,15.45,1.82,15.45,1.82-15.45.91-18.17-8.18S663.66,1739.44,659.12,1738.53Z" style="fill:#e2b664"/><path d="M767.28,1793.06s3.64-2.72,10-10,17.27-16.36,17.27-16.36a4.05,4.05,0,0,0-3.64-2.72c-2.72,0-.91-4.55,0-6.37l3.64-7.27s-13.63.91-20.91,1.82-3.63-1.82-3.63-1.82l10.91-1.82-9.09-4.54,7.27-1.82-7.27-3.63,4.54-3.64s14.54-1.82,18.18-2.73,10.91-6.36,10.91-8.18,3.63-4.54-1.82-6.36-10-8.18-10-10v-6.36c0-8.18-.91-22.72,1.82-24.54,0,0-.91,17.27,0,22.72s.91,8.18,5.45,10.91,11.82,4.54,9.09,12.72-17.27,16.37-20.9,17.27,7.27,5.46,7.27,5.46a15.9,15.9,0,0,0-.91,9.09c.91,5.45-1.82,6.36,2.73,8.18s7.27,2.72,7.27,2.72l.59,9.44s-13.51,8.26-15.68,9.86-9.45,12.52-9.45,12.52L767.28,1794Z" style="fill:#e2b664"/><path d="M814.09,1944.4c6.36,0,28.18,3.64,42.72,9.09s39.09,10.91,39.09,10.91-1.82,1.81-17.27-1.82a401.93,401.93,0,0,1-39.09-10.91C825.91,1947.13,814.09,1944.4,814.09,1944.4Z" style="fill:#e2b664"/><path d="M701.84,1953s21.81,0,34.54-3.64,46.35-21.82,46.35-21.82-34.54,15.46-46.35,18.18S701.84,1953,701.84,1953Z" style="fill:#e2b664"/><path d="M776.37,1954.85c7.27-1.81,23.63.91,31.81,2.73s14.55,10,26.36,10.91a118,118,0,0,0,20,0s-4.55,5.45-20.91,2.72-18.18-7.27-27.26-10.9S776.37,1954.85,776.37,1954.85Z" style="fill:#e2b664"/><path d="M798.19,1952.13c1.81-.91,21.81.91,32.72,3.63s48.17,10,49.08,10a87.75,87.75,0,0,1-25.45-2.73c-14.54-3.63-23.63-4.54-30.9-7.27S798.19,1952.13,798.19,1952.13Z" style="fill:#e2b664"/><polygon points="579 1387 765.49 1610.91 780.39 1606.02 586 1375 579 1387" style="fill:#e4e359"/><path d="M721,1560l80.07,33.4h0a37.39,37.39,0,0,1,36.25-29l114.9,22.34,4.38-13a29,29,0,0,0,2.63-21.34l-4.19-15.9-196.43-19Z" style="fill:#ededed"/><path d="M772,1500l47.69,120.4c1.27,6.17-14.22,36.76-17.19,42.32l-2.1,3.94a49.28,49.28,0,0,0,.18,46.7L815,1772l-8.22,4.87c-11.31,4.28-5.15,3.51-20.88,15.78l-6.46,8-18.7-67.88a45,45,0,0,0-33.52-40.54l-5-1.31a27,27,0,0,1-17.45-14.33L665.71,1596,688,1577.49c5.14-4.26,11.52-13.55,16-18.49,10-11,14.87-20.44,23-27a125.85,125.85,0,0,1,13-9Z" style="fill:#ededed"/><path d="M611.15,1457.91l28.05-18.16,75.21,86.9s-33-19.7-37.89,9.84Z" style="fill:#f15a24"/><path d="M538.07,1367.71l208.49,257.13-4.74,17.72L528.37,1380.84a8.88,8.88,0,0,1,5.9-14.64Z" style="fill:#e4e359"/><path d="M788.9,1525.72,959,1546s5.48,10.94,3,18.29-3.54,10.24-3.54,10.24L803.79,1554Z" style="fill:#f15a24"/><path d="M813,1778c-2.73,0-23.64-18.57-22.73-20.39l3.64-7.27s-13.64.91-20.91,1.82-3.63-1.82-3.63-1.82l10.9-1.82-9.08-4.54,7.27-1.82-7.27-3.63,4.54-3.64s14.54-1.82,18.18-2.73,10.91-6.36,10.91-8.18,3.63-4.54-1.82-6.36-10-8.18-10-10v-6.36c0-8.18-.91-22.72,1.82-24.54,0,0-.91,17.27,0,22.72s.91,8.18,5.45,10.91,11.82,4.54,9.09,12.72-17.27,16.37-20.9,17.27,7.27,5.46,7.27,5.46a15.9,15.9,0,0,0-.91,9.09c.91,5.45,16.64,13.29,21.18,15.11" style="fill:#e2b664"/><path d="M807,1723s-9,14-19,16,6,8,6,8-2,6,0,10,24,17,24,17l1-20Z" style="fill:#f2d79a"/><path d="M388.39,1978.11c.79,7.73-.12,15.42,3.41,24.24,18.14,3.75,30.78,2.62,49.16,1.71,11.8,8.21,20.69,15.23,48.06,20,16.07,2.79,45.1,1.85,56-4.11,3.92-2.11,6.51-5.11,6.51-9.25,0-5,.24-9.83-7.18-11.63-16.1-3.86-29.1-12-43.64-21,2.19-7.38-5.33-12.19-13.48-19.15-5.45-4.66-12.35-13-16.55-16.68l-62.47,14Z" style="fill:#b4713d;fill-rule:evenodd"/><path d="M200.15,2024.68c3.86,9.92,12.06,14.17,31.5,19.8,10.83,3.12,45.68,3.29,51.73-3.37,4.95-5.47,7.52-18.91,6.32-28.4-1.78-14-20.52-37.86-20.21-63.84l-61.82,2.4-9.9,17.4C199.88,1983.45,197.17,2017.06,200.15,2024.68Z" style="fill:#b4713d;fill-rule:evenodd"/><path d="M257.36,1708.78c.09-38.76-.61-17.25,3.64-59.78,1.73-10.14-.3-45.8,1.5-55.46,3.29-17.67,6.74-35.54,10.46-53.53-33.85-3.81-67.77-7.08-101.75-9.55.69,26.46,1.46,52.63,2.27,77.74,2,62.3,2,131.74,6.56,194.12,2.71,37.46,7.68,73.5,11.17,110.69,2.28,24.42-.55,43.81,7.3,70.91,19.13-24.05,35.16-29.22,72.38-18.43,17-51.3-8.32-113.07-10.79-170C259.23,1775.53,257.31,1729,257.36,1708.78Z" style="fill:#232533;fill-rule:evenodd"/><path d="M470.25,1891.05c-2.57-70.73-9.85-150.89-17.06-221.44.45-22.75,2.52-31.31,0-53.94l-5.83-52.27q-24.37-3.63-48.76-7.12-31.59-4.52-63.23-8.66c9.7,32.78,19.18,65.46,27.69,96.74,1.37,24.34-.24,47.86,4.08,80.78s15.69,90.47,17.76,122.9-4.44,58.2-3.41,69.66c1.61,17.76,8.86,36.57,7.52,62.14,35.92,2.86,40.27-25.95,89.43-35.52C464.51,1907.13,471.45,1924.16,470.25,1891.05Z" style="fill:#232533;fill-rule:evenodd"/><path d="M205,907.83c-15.31,1.47,33.43,30.08,95.42,52l51-17.83c-2.89,0,53.55-15.29,35.07-32.69C369.41,893.27,346.91,890,344.05,884c-7-14.64-7.84-37.14-4.63-51.49l-38.82.88L257,831.65c2.41,10.86,6.58,35.09-1.23,51.32C251.3,892.3,224.78,892.87,205,907.83Z" style="fill:#d29c79;fill-rule:evenodd"/><path d="M249,771.33c-2.33-3-3.22-2.38-4.51-2-2.87.77-1.94,4.61-1.69,9,.17,2.52-1.12,5.2-1,9.55.25,7.51,4.08,11.12,8,17.67a3.92,3.92,0,0,0,4.95,1.2l-3.3-32Z" style="fill:#f1b186;fill-rule:evenodd"/><path d="M299.77,858.23h.66c8,0,12-.14,16.34-2,4.17-1.81,6.16-6,11.83-11.59C333.4,839.87,342,835.07,344,830c2.75-6.93,1.44-14.48,3-25.05,1.21-8.32,5-15.67,5.23-23.87.25-8.79-1.44-17.52-1.4-27.28.07-18.87.22-30.85-11.21-40.24h0A48.22,48.22,0,0,0,329.1,707l-.12-.07-.76-.33-.43-.2-.59-.25-.59-.24-.64-.26-.57-.22-.82-.31-.4-.14-1.21-.43h0c-20.3-6.81-45.93-3.81-61.45,9-11.42,9.39-11.3,21.37-11.21,40.24,0,9.76-1.65,18.49-1.4,27.28.23,8.2,4,15.55,5.23,23.87,1.52,10.57.21,18.11,3,25.05,2,5.1,10.61,9.9,15.41,14.64,5.69,5.61,7.68,9.78,11.85,11.6S292.37,858.24,299.77,858.23Z" style="fill:#f1b186;fill-rule:evenodd"/><g style="clip-path:url(#clip-path-10)"><path d="M241.88,778.2c-.25-4.34-1.18-8.18,1.69-9,1.29-.35,2.18-1,4.51,2l.2.28c.43-5.72,1.11-11.57,1.09-17.85-.09-18.87-.22-30.85,11.21-40.24,15.52-12.79,41.15-15.78,61.45-9l1.21.43c.14.05.27.09.4.15l.82.3.57.22.64.26.59.24.59.26a4.28,4.28,0,0,1,.43.19l.76.33.12.07a48.45,48.45,0,0,1,10.51,6.53h0c11.42,9.39,11.28,21.37,11.21,40.24,0,9.76,1.65,18.49,1.4,27.28-.24,8.2-4,15.55-5.23,23.87-1.52,10.57-.21,18.12-3,25-2,5.1-10.63,9.9-15.43,14.64-5.67,5.61-7.66,9.78-11.83,11.6-4.33,1.89-8.33,2.06-16.34,2h-.66c-7.4,0-11.25-.22-15.41-2s-6.16-6-11.85-11.6c-4.8-4.74-13.41-9.54-15.41-14.64-2.58-6.5-1.62-13.58-2.74-23.14a3.92,3.92,0,0,1-4.56-1.35c-3.87-6.55-7.7-10.16-8-17.67C240.76,783.4,242.05,780.72,241.88,778.2Z" style="fill:#dda47f;fill-rule:evenodd"/></g><path d="M352.11,771.33c2.33-3,3.22-2.38,4.51-2,2.87.77,1.94,4.61,1.67,9-.15,2.52,1.14,5.2,1,9.55-.25,7.51-4.08,11.12-7.95,17.67a3.93,3.93,0,0,1-4.95,1.2l3.3-32Z" style="fill:#f1b186;fill-rule:evenodd"/><path d="M318,825.75l-2.17,2.68a5.63,5.63,0,0,1-4.38,2.08H293.55a5.65,5.65,0,0,1-3.37-1.11l-4.89-3.65,17.35.68Z" style="fill:#fff;fill-rule:evenodd"/><path d="M275.84,684.45c-30.54-5.05-37.73,42.37-33.25,60.25.15-3.37,7.74,24.92,9,42.6l1.5-1.71c2.35-23.82-4.58-24.78,6.69-47.77-1.31-21.29,9.38-24.31,37.45-21.88-.4-20.24-10.3-35.58-14.58-41.25C279.76,677.13,278,680.42,275.84,684.45Z" style="fill:#4a2930"/><path d="M341.42,689.62c-13.77-11.5-20-20.81-42-19.8-8.56.39-13.38,2.08-16.71,4.87,4.28,5.67,14.18,21,14.58,41.25h.07c31.78-14,52.57,15.16,52.61,49.42a259,259,0,0,1-1.69,28c5.2-17.32,10.66-23.26,11-54l1.71,7.54C364.68,717,361.15,706.11,341.42,689.62Z" style="fill:#5f333a"/><path d="M316.38,832.55a12.44,12.44,0,0,1-7.83,2.89c-5.22.28-21.08-.37-21.08-.37s5.41,2.89,7.18,4S308.92,841.13,316.38,832.55Z" style="fill:#d09c78;fill-rule:evenodd"/><path d="M306.25,859s-48.15,25.87-53.7,38a88.4,88.4,0,0,0,3.52-16.19c.5-3.82,5.8-18,4.24-26.89s-2.91-20.55-2.91-20.55,12.8,11.16,14.92,13.19,7.5,9.62,11.84,10.2,20.3,1.63,20.3,1.63Z" style="fill:#583e20;opacity:0.1"/><path d="M174,1338s-5,130-5,142,3,118,5,155,86.5,52.5,86.5,23.5S278,1519,280,1509s12.5-88.5,12.5-88.5l9,1s23.89,121,43.5,141.5c43.06,45,102.31,9.87,103,3,1-10-24.5-121.5-24.5-138.5s1-47-1-61l-4-28s-24-4-39-3-141,3-163,2A406.7,406.7,0,0,0,174,1338Z" style="fill:#232533"/><path d="M267.5,1410.5c1,0,22,7,32,6s39-11,39-11-36,11-28,13,61,16,61,16-57-13-58-6,27,75,26,74-19-40-22-33-2,15.81-2,15.81l-11-63.81-9.32.59-12.05,61.27-4.27,31.51s4.64-43.37.64-39.37-15,17-15,17,30-60,26-64-35,5-35,5,34-10,33-13S267.5,1410.5,267.5,1410.5Z" style="fill:#15171e"/><path d="M171,1314v26s14,7,47,7,114-2,142-2,31,1,41-2,20-4,20-8,5-18,3-25,4-7,4-11-10-66-9-96-3.5-115.5-3.5-115.5l3,2s4,40,5,44S429,1145,430,1148s6,8,4,11,3,21,7,24,44-14,43-22,3-8,3-14,9-9,7-18-4.5-80.5-13.5-110.5-7-73-21-81-28-18-39-23-44-17-47-19-6-2-10-5S346,886,346,886a7.59,7.59,0,0,1,3,9c-2,6-12.5,28.5-50.5,25.5s-58-14-62-20,2-6,3-7,14-7,15-9,3-4,0-3-33,12-35,15-13,6-13,6-72,27-76,40-18,57-19,72-13.22,120.6-14,125C96,1148,97,1178,97,1181s6,8,15,11,49.5-13.5,50.5-16.5,3-6,3-9-2-7,0-11-1-3,1-12,9-54,9-54,0,112-3,143-11,60-6,69S171,1314,171,1314Z" style="fill:#437d38"/><path d="M171.43,1115.11s-2.93-20.61-6.93-30.61-9-20-9-20,10,27,12,14-8-84-8-84,11,89,15,82,0-76,0-76,5,94,4,113-2,84-3,94S177,1281,183,1292s-3,12,34,17,54.5,9.5,54.5,9.5-86-8-87-3-2.56,28.08-4.28,27.54-8.72-3.54-8.72-3.54-2-13.29-.5-19.14-2-10.66-1.75-13.26-4.51-6.35-4.13-10.47,2.38-22.13,3.38-29.13,4.35-43.16,4.67-44.08.86-41.4,1.6-49.66.73-80.2.73-80.2l-.64.06Z" style="fill:#1e4e26"/><path d="M421.57,1115.11s2.93-20.61,6.93-30.61,9-20,9-20-10,27-12,14,8-84,8-84-11,89-15,82,0-76,0-76-5,94-4,113,2,84,3,94,7,70,1,81,12,16-25,21-72,9-72,9,86-8,87-3,2.56,28.08,4.28,27.54,8.72-3.54,8.72-3.54,2-13.29.5-19.14,2-10.66,1.75-13.26,4.51-6.35,4.13-10.47-2.38-22.13-3.38-29.13-4.35-43.16-4.67-44.08-.86-41.4-1.6-49.66-.73-80.2-.73-80.2l.64.06Z" style="fill:#1e4e26"/><path d="M276.48,773.26a2.76,2.76,0,0,1-1.92,3.59,3.19,3.19,0,0,1-4-1.74,2.76,2.76,0,0,1,1.91-3.59A3.21,3.21,0,0,1,276.48,773.26Z" style="fill:#878787;fill-rule:evenodd"/><path d="M288.17,765.5s-.8,2.59-2.67,2.61-3.23-.89-4.77-1a17.09,17.09,0,0,1-3.92-.46c-2.32-.54-3.08-1.29-5.43-1.32s-3.84-.42-6.2.32-3.65,1.08-5.09,1.61-1.7,1-1.89.56-.78-.22,1.22-1.7a21.26,21.26,0,0,1,10.67-3.93,33.55,33.55,0,0,1,9,.55c1.8.42,3.86,1.33,5.31,1.44S288.05,763.77,288.17,765.5Z" style="fill:#5f333a;fill-rule:evenodd"/><path d="M283,775.21s.21.55-.75.24-4.35-4.76-10-3.27S265,775,265,775a19.45,19.45,0,0,1,7.6-3.54C277.39,770.29,283,775.21,283,775.21Z" style="fill:#d28f66;fill-rule:evenodd"/><path d="M325.05,773.26a2.76,2.76,0,0,0,1.92,3.59,3.19,3.19,0,0,0,4-1.74,2.76,2.76,0,0,0-1.91-3.59A3.22,3.22,0,0,0,325.05,773.26Z" style="fill:#878787;fill-rule:evenodd"/><path d="M313.36,765.5s.8,2.59,2.67,2.61,3.23-.89,4.77-1a17.22,17.22,0,0,0,3.93-.46c2.31-.54,3.07-1.29,5.43-1.32s3.83-.42,6.19.32,3.65,1.08,5.09,1.61,1.71,1,1.89.56.79-.22-1.22-1.7a21.26,21.26,0,0,0-10.67-3.93,33.63,33.63,0,0,0-9,.55c-1.8.42-3.86,1.33-5.31,1.44S313.48,763.77,313.36,765.5Z" style="fill:#5f333a;fill-rule:evenodd"/><path d="M318.52,775.21s-.21.55.75.24,4.35-4.76,10-3.27,7.32,2.78,7.32,2.78a19.45,19.45,0,0,0-7.6-3.54C324.14,770.29,318.52,775.21,318.52,775.21Z" style="fill:#d28f66;fill-rule:evenodd"/><path d="M525.14,1313.63c-4.93,9.22-6.32,12.14-7.34,16.42-.62,2.72-1.11,6-2.25,11.73a59.72,59.72,0,0,0-1.36,8.15c-.27,3.6.89,8.29,1.63,14,1.1,8.81-.73,12.06,2,14.21,1.52,1.17,3.82,1.45,6.22,2.72s3.86,3.21,6.52,5.44c1.3-.58,2.61-1.2,3.93-1.8l1.23-13.86,12.37,15.57-4.56,5.82c-6.3-.07-9.37,1.72-10.17,9.1,2.55.9,6.14,2.35,9.55,3.29,2.41.66,4.65,1.18,6.64.53a7.24,7.24,0,0,0,2.86-1.91c5.82.13,9.81-1.63,14.65-3.1,3.42-1,6.22-1.14,9.31-3.24,1-.68,2.48-1.8,3.86-2.79.5,3.7,1.63,3.83,4.82,4.2,2.84-4.07,5.12-9.28,7.69-14.43a78.94,78.94,0,0,1,1-18.11c-3.77-7.12-5.2-11.32-7.83-18.73a132.21,132.21,0,0,0-9.64-21.3c-11.14-20.21-4.11-11.68-20.53-29.79-11.78-13-12.4-16.67-25.23-36.78l-28.5,15.18C512,1282.73,521.25,1299,525.14,1313.63Z" style="fill:#f1b287;fill-rule:evenodd"/><path d="M517.52,1377.89c.12.09.23.2.34.3,1.52,1.17,3.82,1.45,6.22,2.72s3.86,3.21,6.52,5.44c1.3-.58,2.61-1.2,3.93-1.8l1.23-13.86,12.37,15.57-4.56,5.82c-6.3-.07-9.37,1.72-10.17,9.1,2.55.9,6.14,2.35,9.55,3.29,2.41.66,4.65,1.18,6.64.53a7.24,7.24,0,0,0,2.86-1.91c5.82.13,9.81-1.63,14.65-3.1,3.42-1,6.22-1.14,9.31-3.24,1-.68,2.48-1.8,3.86-2.79.5,3.7,1.63,3.83,4.82,4.2a72.39,72.39,0,0,0,5.19-9.29c-3.21,2.17-6.76,4.09-4.19-.48,3.19-5.72,4.09-6.74,2.47-14.8-1.31-6.57-3.93-12-3.58-21.59-1.46,7.07.49,14,2.17,21.79,1.09,5.09,2.34,6.37-.72,10.54-1.35,1.83-3,3.42-5.09,2.62s-2.58-3.54-2.75-8.38c-.27-6.65-.45-12,.71-19.36-2.77,11.94-1.93,13.76-1.2,25.61-.33,4-.15,6.54-1.29,8.06-.88,1.17-2.52,1.74-5.8,1.89-3.61.18-3.57,0-3.93-5.11l-1.66-23.4c-2.48,10,.22,17.43-.95,26.52-.49,3.71-2.31,4-9.27,2.89-6.42,9.39-5.34,10.09-20.72,5,.46-8.07,4.89-6.9,9.19-1.83,1.62-7.22,5.29-5.35,7.42-6.47-.17-6.41-1.34-14.37-4.46-20-4.73-8.53-9.13-15.76-16-30.4.31,9.15-1.19,10.16-1.62,14.64-.75,7.85.45,11.3-1.13,16.43C526.49,1377.6,521.72,1377.84,517.52,1377.89Z" style="fill:#e8a476;fill-rule:evenodd"/><path d="M420,1112l17.11,75.1s6.31,31.55,18.93,44.17c10,10,56.78,82,63.09,82s44.16-6.31,44.16-12.62-18.93-37.85-25.24-50.47S499.31,1143.62,493,1131,420,1112,420,1112Z" style="fill:#437d38"/><path d="M417,1094l7.5-20.45s18.92,126.17,37.85,145.1,69.39,94.63,69.39,94.63l-13.89.27s-68.12-82.28-68.12-88.59c0,0-12.62-18.93-12.62-25.24S417,1094,417,1094Z" style="fill:#1e4e26"/><path d="M538.07,1367.71l208.49,257.13-4.74,17.72L528.37,1380.84a8.88,8.88,0,0,1,5.9-14.64Z" style="fill:#e4e359"/><path d="M248.76,782.7s-.8.8-.8,3.2-.8,4.8,0,5.6.8,3.2.8,3.2S240,789.1,248.76,782.7Z" style="fill:#fff;fill-rule:evenodd"/><polygon points="246.1 792.14 247.16 797.1 247.96 797.1 248.76 797.1 248.29 794.36 246.1 792.14" style="fill:#fff;fill-rule:evenodd"/><path d="M248,794.7s.61,118.12,2,126c2.4,13.6,11.2,49.49,25,58.4,17.38,11.2,34.18,39.2,32.58,52s7.6,17.2,10,22" style="fill:none;stroke:#fff;stroke-miterlimit:10;stroke-width:0.8px;fill-rule:evenodd"/><path d="M317.5,1276.5c-8,16.8-9,27-14,31-8.83,7.07-23.8-4-19-16s4.88-17.35,2-26c-11.2-33.6,4-108,29.86-172.8,5.83-14.6,1.2-38,1.2-38s3.94-9.2,8.94-6.2,27,40,24,60,24,32,21,60-7,57-8,78-2,31,1,36c0,0,4.49,7.3,3.74,14.65s-2.74,10.35-4.74,20.35c-.78,3.92,0,21,7,28" style="fill:none;stroke:#fff;stroke-miterlimit:10;stroke-width:0.8px;fill-rule:evenodd"/><polygon points="315.16 1051.5 320.76 1051.5 321.56 1075.5 315.96 1075.5 315.16 1051.5" style="fill:#fff;fill-rule:evenodd"/><path d="M369.75,1346.88s-2.25-2.88-1.25-3.88a4.94,4.94,0,0,1,3-1s.31,3.6,1.16,4.3,2.34,3.2,4.34,6.2,5.5,8.5,3.5,8.5h-3s-6.5-.5-7.5-4.5c-1.31-5.22,0-6,.5-7.5C371.13,1347.1,369.75,1346.88,369.75,1346.88Z" style="fill:#fff;fill-rule:evenodd"/><path d="M342.15,1144.67l37.9,9.33c2.79.69,4.11,4.56,2.94,8.6L349.4,1278.28c-1.17,4-4.42,6.83-7.22,6.14l-37.9-9.33c-2.79-.68-4.11-4.58-2.94-8.63l33.6-115.68C336.11,1146.73,339.35,1144,342.15,1144.67Z" style="fill:#050505;fill-rule:evenodd"/><path d="M342.6,1148.36l35.17,8.66c2.59.63,3.83,4.23,2.73,8l-31.17,107.42c-1.09,3.74-4.11,6.29-6.7,5.65l-35.17-8.65c-2.59-.64-3.83-4.23-2.74-8L335.9,1154C337,1150.27,340,1147.73,342.6,1148.36Z" style="fill:#292725;fill-rule:evenodd"/><path d="M372.9,1215.67c-1.32-3.28-3.16-6.68-4.35-9.11-7.25,1.63-8.67,4.89-7.89,11.13l-5.26,5.2-.29-.18-.11.29c-7.51,2.5-27.57-11.72-34-16.48a3.56,3.56,0,0,1-1.28-3.9l2.92-9.57a32.92,32.92,0,0,0-7.21.24,57.31,57.31,0,0,0-7.95,2.27c-5.57,1.78-8.76,2.64-11.39,3.57-4.14,1.49-6.88,3.2-15.49,9.14-14.95-2.21-32.2-9.56-41.8-18.42l-11.85,30c21.44,10.47,25.18,10.66,39.41,20.89,19.86,14.27,10.59,8.25,31.93,17a132.3,132.3,0,0,0,22.26,7.16c7.67,1.78,12,2.73,19.5,5.67a78.44,78.44,0,0,1,17.88-3.1c4.83-3.13,9.75-6,13.47-9.27-.73-3.12-1-4.23-4.72-4.32.82-1.47,1.77-3.1,2.33-4.14,1.74-3.31,1.52-6.11,2.17-9.63.91-5,2.2-9.13,1.42-14.9a7.36,7.36,0,0,0,1.58-3.06C374.61,1220.17,373.83,1218,372.9,1215.67Z" style="fill:#f1b287"/><path d="M146,1139s22-8,38,9,93,57,93,57l4,2s-3,18-2,27c1.17,10.57-15,15-15,15l-9-4s-27.67-1.82-37.33-4.41S116,1213,103,1188a26.49,26.49,0,0,1-4-27.89C106,1144,146,1139,146,1139Z" style="fill:#437d38;fill-rule:evenodd"/><path d="M259,1243s-24.33-8.41-34-11c-9.06-2.43-93.42-18.76-114.64-41.39a34.07,34.07,0,0,0-11-8L98,1182c18,32,110,56,119.67,58.59S255,1245,255,1245l9,4s1.08-1,2.79-2.54Z" style="fill:#1e4e26;fill-rule:evenodd"/><polygon points="401.38 2073.3 295.68 1283.38 302.49 1282.47 408.19 2072.39 405.77 2084.42 401.38 2073.3" style="fill:#dadada"/><polygon points="308 1278 289.2 1281.16 302.62 1348.35 311.56 1346.22 308 1278" style="fill:#4b515a"/><path d="M344.17,1593.09l-11.7-87.16-6.67,2,11.64,86.71C339.68,1594.12,341.93,1593.6,344.17,1593.09Z" style="fill:red"/><path d="M383.62,1898l1.44-.2L368.71,1776l-6.75,1.37,16.27,121.26C380,1898.45,381.83,1898.26,383.62,1898Z" style="fill:red"/><path d="M392.75,2006.82l8.63,66.48,4.39,11.12,2.42-12-8.69-66.95Z"/><circle cx="408.49" cy="2085.7" r="21.6" style="fill:#878787"/><path d="M412.49,2099.3a21.61,21.61,0,0,1-20.91-27,21.6,21.6,0,1,0,37.82,18.86A21.55,21.55,0,0,1,412.49,2099.3Z"/><path d="M289.46,1282.47S263.24,1256.77,263,1247s5.51-42.93,10.26-44,6.74,2,6.74,2-6,13-8,20-8,18,3,37c4.62,8,17.5,18.68,17.5,18.68Z" style="fill:#26282d;fill-rule:evenodd"/><polygon points="304.89 1278.87 308 1278 296 1257 289 1254 304.89 1278.87" style="fill:#26282d;fill-rule:evenodd"/></g></g></svg>